<mxfile host="Electron" modified="2023-05-08T18:46:09.805Z" agent="Mozilla/5.0 (Windows NT 10.0; Win64; x64) AppleWebKit/537.36 (KHTML, like Gecko) draw.io/21.1.2 Chrome/106.0.5249.199 Electron/21.4.3 Safari/537.36" etag="QTn1QcLK-Gj_xSa9Y-TD" version="21.1.2" type="device">
  <diagram name="Page-1" id="2YBvvXClWsGukQMizWep">
    <mxGraphModel dx="4347" dy="2830" grid="1" gridSize="10" guides="1" tooltips="1" connect="1" arrows="1" fold="1" page="1" pageScale="1" pageWidth="850" pageHeight="1100" math="0" shadow="0">
      <root>
        <mxCell id="0" />
        <mxCell id="1" parent="0" />
        <mxCell id="fJqCk-1SdrUA80qwoezV-3" value="" style="rounded=0;whiteSpace=wrap;html=1;movable=1;resizable=1;rotatable=1;deletable=1;editable=1;locked=0;connectable=1;" vertex="1" parent="1">
          <mxGeometry x="-1570" y="-730" width="7585" height="5560" as="geometry" />
        </mxCell>
        <mxCell id="aM9ryv3xv72pqoxQDRHE-1" value="Sitegen&lt;br&gt;Admin Tool" style="shape=umlLifeline;perimeter=lifelinePerimeter;whiteSpace=wrap;html=1;container=0;dropTarget=0;collapsible=0;recursiveResize=0;outlineConnect=0;portConstraint=eastwest;newEdgeStyle={&quot;edgeStyle&quot;:&quot;elbowEdgeStyle&quot;,&quot;elbow&quot;:&quot;vertical&quot;,&quot;curved&quot;:0,&quot;rounded&quot;:0};" parent="1" vertex="1">
          <mxGeometry x="-30" y="-170" width="100" height="220" as="geometry" />
        </mxCell>
        <mxCell id="aM9ryv3xv72pqoxQDRHE-4" value="" style="html=1;points=[];perimeter=orthogonalPerimeter;outlineConnect=0;targetShapes=umlLifeline;portConstraint=eastwest;newEdgeStyle={&quot;edgeStyle&quot;:&quot;elbowEdgeStyle&quot;,&quot;elbow&quot;:&quot;vertical&quot;,&quot;curved&quot;:0,&quot;rounded&quot;:0};" parent="aM9ryv3xv72pqoxQDRHE-1" vertex="1">
          <mxGeometry x="45" y="130" width="10" height="60" as="geometry" />
        </mxCell>
        <mxCell id="fJqCk-1SdrUA80qwoezV-7" value="Practice level" style="shape=umlFrame;whiteSpace=wrap;html=1;pointerEvents=0;width=120;height=40;" vertex="1" parent="1">
          <mxGeometry x="-800" y="-340" width="4490" height="3130" as="geometry" />
        </mxCell>
        <mxCell id="fJqCk-1SdrUA80qwoezV-11" value="Patient level" style="shape=umlFrame;whiteSpace=wrap;html=1;pointerEvents=0;width=120;height=40;" vertex="1" parent="1">
          <mxGeometry x="310" y="3510" width="1060" height="490" as="geometry" />
        </mxCell>
        <mxCell id="fJqCk-1SdrUA80qwoezV-12" value="Patient" style="shape=umlActor;verticalLabelPosition=bottom;verticalAlign=top;html=1;outlineConnect=0;" vertex="1" parent="1">
          <mxGeometry x="-390" y="660" width="30" height="60" as="geometry" />
        </mxCell>
        <mxCell id="fJqCk-1SdrUA80qwoezV-15" value="pxp-health-event-listener" style="shape=umlLifeline;perimeter=lifelinePerimeter;whiteSpace=wrap;html=1;container=0;dropTarget=0;collapsible=0;recursiveResize=0;outlineConnect=0;portConstraint=eastwest;newEdgeStyle={&quot;edgeStyle&quot;:&quot;elbowEdgeStyle&quot;,&quot;elbow&quot;:&quot;vertical&quot;,&quot;curved&quot;:0,&quot;rounded&quot;:0};size=70;" vertex="1" parent="1">
          <mxGeometry x="570" y="-190" width="100" height="900" as="geometry" />
        </mxCell>
        <mxCell id="fJqCk-1SdrUA80qwoezV-16" value="" style="html=1;points=[];perimeter=orthogonalPerimeter;outlineConnect=0;targetShapes=umlLifeline;portConstraint=eastwest;newEdgeStyle={&quot;edgeStyle&quot;:&quot;elbowEdgeStyle&quot;,&quot;elbow&quot;:&quot;vertical&quot;,&quot;curved&quot;:0,&quot;rounded&quot;:0};" vertex="1" parent="fJqCk-1SdrUA80qwoezV-15">
          <mxGeometry x="45" y="265" width="10" height="555" as="geometry" />
        </mxCell>
        <mxCell id="fJqCk-1SdrUA80qwoezV-41" value="&lt;i&gt;listens to&lt;/i&gt;" style="html=1;verticalAlign=bottom;endArrow=block;edgeStyle=elbowEdgeStyle;elbow=vertical;curved=0;rounded=0;" edge="1" parent="1" target="fJqCk-1SdrUA80qwoezV-40" source="fJqCk-1SdrUA80qwoezV-16">
          <mxGeometry relative="1" as="geometry">
            <mxPoint x="490" y="110" as="sourcePoint" />
            <Array as="points">
              <mxPoint x="510" y="360" />
              <mxPoint x="470" y="60" />
              <mxPoint x="450" y="200" />
              <mxPoint x="480" y="90" />
              <mxPoint x="470" y="140" />
              <mxPoint x="465" y="110" />
            </Array>
          </mxGeometry>
        </mxCell>
        <mxCell id="fJqCk-1SdrUA80qwoezV-44" value="&lt;i&gt;sends&lt;/i&gt;&lt;font face=&quot;Courier New&quot;&gt;&amp;nbsp;practice.event&lt;/font&gt;" style="html=1;verticalAlign=bottom;endArrow=block;edgeStyle=elbowEdgeStyle;elbow=vertical;curved=0;rounded=0;" edge="1" parent="1" source="fJqCk-1SdrUA80qwoezV-40" target="fJqCk-1SdrUA80qwoezV-16">
          <mxGeometry width="80" relative="1" as="geometry">
            <mxPoint x="420" y="150" as="sourcePoint" />
            <mxPoint x="500" y="150" as="targetPoint" />
            <Array as="points">
              <mxPoint x="510" y="430" />
              <mxPoint x="470" y="90" />
              <mxPoint x="470" y="250" />
              <mxPoint x="460" y="170" />
            </Array>
          </mxGeometry>
        </mxCell>
        <mxCell id="fJqCk-1SdrUA80qwoezV-47" value="&lt;i&gt;pushes events to&lt;/i&gt;" style="html=1;verticalAlign=bottom;endArrow=block;edgeStyle=elbowEdgeStyle;elbow=vertical;curved=0;rounded=0;" edge="1" parent="1" source="fJqCk-1SdrUA80qwoezV-16" target="fJqCk-1SdrUA80qwoezV-52">
          <mxGeometry width="80" relative="1" as="geometry">
            <mxPoint x="560" y="190" as="sourcePoint" />
            <mxPoint x="695" y="190" as="targetPoint" />
            <Array as="points">
              <mxPoint x="680" y="500" />
              <mxPoint x="610" y="190" />
            </Array>
          </mxGeometry>
        </mxCell>
        <mxCell id="fJqCk-1SdrUA80qwoezV-48" value="pxp-health-event-handler" style="shape=umlLifeline;perimeter=lifelinePerimeter;whiteSpace=wrap;html=1;container=0;dropTarget=0;collapsible=0;recursiveResize=0;outlineConnect=0;portConstraint=eastwest;newEdgeStyle={&quot;edgeStyle&quot;:&quot;elbowEdgeStyle&quot;,&quot;elbow&quot;:&quot;vertical&quot;,&quot;curved&quot;:0,&quot;rounded&quot;:0};" vertex="1" parent="1">
          <mxGeometry x="860" y="-150" width="100" height="1110" as="geometry" />
        </mxCell>
        <mxCell id="fJqCk-1SdrUA80qwoezV-49" value="" style="html=1;points=[];perimeter=orthogonalPerimeter;outlineConnect=0;targetShapes=umlLifeline;portConstraint=eastwest;newEdgeStyle={&quot;edgeStyle&quot;:&quot;elbowEdgeStyle&quot;,&quot;elbow&quot;:&quot;vertical&quot;,&quot;curved&quot;:0,&quot;rounded&quot;:0};" vertex="1" parent="fJqCk-1SdrUA80qwoezV-48">
          <mxGeometry x="45" y="370" width="10" height="710" as="geometry" />
        </mxCell>
        <mxCell id="fJqCk-1SdrUA80qwoezV-53" value="&lt;i&gt;consumes event payload&lt;/i&gt;" style="html=1;verticalAlign=bottom;endArrow=block;edgeStyle=elbowEdgeStyle;elbow=vertical;curved=0;rounded=0;" edge="1" target="fJqCk-1SdrUA80qwoezV-52" parent="1" source="fJqCk-1SdrUA80qwoezV-49">
          <mxGeometry relative="1" as="geometry">
            <mxPoint x="670" y="290" as="sourcePoint" />
            <Array as="points">
              <mxPoint x="820" y="230" />
            </Array>
          </mxGeometry>
        </mxCell>
        <mxCell id="fJqCk-1SdrUA80qwoezV-55" value="Integration API" style="shape=umlLifeline;perimeter=lifelinePerimeter;whiteSpace=wrap;html=1;container=0;dropTarget=0;collapsible=0;recursiveResize=0;outlineConnect=0;portConstraint=eastwest;newEdgeStyle={&quot;edgeStyle&quot;:&quot;elbowEdgeStyle&quot;,&quot;elbow&quot;:&quot;vertical&quot;,&quot;curved&quot;:0,&quot;rounded&quot;:0};" vertex="1" parent="1">
          <mxGeometry x="1150" y="-140" width="100" height="580" as="geometry" />
        </mxCell>
        <mxCell id="fJqCk-1SdrUA80qwoezV-56" value="" style="html=1;points=[];perimeter=orthogonalPerimeter;outlineConnect=0;targetShapes=umlLifeline;portConstraint=eastwest;newEdgeStyle={&quot;edgeStyle&quot;:&quot;elbowEdgeStyle&quot;,&quot;elbow&quot;:&quot;vertical&quot;,&quot;curved&quot;:0,&quot;rounded&quot;:0};" vertex="1" parent="fJqCk-1SdrUA80qwoezV-55">
          <mxGeometry x="45" y="390" width="10" height="80" as="geometry" />
        </mxCell>
        <mxCell id="fJqCk-1SdrUA80qwoezV-57" value="" style="html=1;verticalAlign=bottom;endArrow=block;edgeStyle=elbowEdgeStyle;elbow=vertical;curved=0;rounded=0;" edge="1" parent="1" source="fJqCk-1SdrUA80qwoezV-49" target="fJqCk-1SdrUA80qwoezV-56">
          <mxGeometry width="80" relative="1" as="geometry">
            <mxPoint x="880" y="250" as="sourcePoint" />
            <mxPoint x="950" y="250" as="targetPoint" />
            <Array as="points">
              <mxPoint x="1000" y="260" />
            </Array>
          </mxGeometry>
        </mxCell>
        <mxCell id="fJqCk-1SdrUA80qwoezV-58" value="&lt;font style=&quot;font-size: 11px;&quot;&gt;GET &lt;br&gt;External Practice mapping&lt;br&gt;&amp;nbsp;for external system 88 &lt;br&gt;&lt;br&gt;i.e. Nextgen&lt;/font&gt;" style="text;html=1;strokeColor=none;fillColor=none;align=center;verticalAlign=middle;whiteSpace=wrap;rounded=0;" vertex="1" parent="1">
          <mxGeometry x="980" y="230" width="180" height="30" as="geometry" />
        </mxCell>
        <mxCell id="fJqCk-1SdrUA80qwoezV-59" value="" style="html=1;verticalAlign=bottom;endArrow=open;dashed=1;endSize=8;edgeStyle=elbowEdgeStyle;elbow=vertical;curved=0;rounded=0;" edge="1" parent="1" source="fJqCk-1SdrUA80qwoezV-56" target="fJqCk-1SdrUA80qwoezV-49">
          <mxGeometry relative="1" as="geometry">
            <mxPoint x="950" y="320" as="sourcePoint" />
            <mxPoint x="950" y="340" as="targetPoint" />
            <Array as="points">
              <mxPoint x="930" y="320" />
              <mxPoint x="880" y="320" />
            </Array>
          </mxGeometry>
        </mxCell>
        <mxCell id="fJqCk-1SdrUA80qwoezV-60" value="&lt;font style=&quot;font-size: 11px;&quot;&gt;&lt;i&gt;returns&amp;nbsp;&lt;/i&gt;External Practice id&lt;br&gt;&lt;/font&gt;" style="text;html=1;strokeColor=none;fillColor=none;align=center;verticalAlign=middle;whiteSpace=wrap;rounded=0;" vertex="1" parent="1">
          <mxGeometry x="960" y="300" width="140" height="20" as="geometry" />
        </mxCell>
        <mxCell id="fJqCk-1SdrUA80qwoezV-65" value="&lt;font style=&quot;font-size: 11px;&quot;&gt;&lt;i&gt;updates &lt;/i&gt;&lt;br&gt;&lt;i&gt;event payload by adding&lt;/i&gt;&lt;br&gt;&lt;b&gt;external practice&lt;i&gt; &lt;/i&gt;id &amp;amp; site id&amp;nbsp;&lt;br&gt;to the event payload&lt;/b&gt;&lt;br&gt;&lt;/font&gt;" style="text;html=1;strokeColor=none;fillColor=none;align=left;verticalAlign=middle;whiteSpace=wrap;rounded=0;" vertex="1" parent="1">
          <mxGeometry x="1065" y="470" width="210" height="70" as="geometry" />
        </mxCell>
        <mxCell id="fJqCk-1SdrUA80qwoezV-66" value="" style="shape=umlLifeline;perimeter=lifelinePerimeter;whiteSpace=wrap;html=1;container=1;dropTarget=0;collapsible=0;recursiveResize=0;outlineConnect=0;portConstraint=eastwest;newEdgeStyle={&quot;edgeStyle&quot;:&quot;elbowEdgeStyle&quot;,&quot;elbow&quot;:&quot;vertical&quot;,&quot;curved&quot;:0,&quot;rounded&quot;:0};participant=umlControl;" vertex="1" parent="1">
          <mxGeometry x="150" y="-190" width="40" height="270" as="geometry" />
        </mxCell>
        <mxCell id="fJqCk-1SdrUA80qwoezV-74" value="" style="html=1;points=[];perimeter=orthogonalPerimeter;outlineConnect=0;targetShapes=umlLifeline;portConstraint=eastwest;newEdgeStyle={&quot;edgeStyle&quot;:&quot;elbowEdgeStyle&quot;,&quot;elbow&quot;:&quot;vertical&quot;,&quot;curved&quot;:0,&quot;rounded&quot;:0};" vertex="1" parent="fJqCk-1SdrUA80qwoezV-66">
          <mxGeometry x="15" y="192.5" width="10" height="47.5" as="geometry" />
        </mxCell>
        <mxCell id="fJqCk-1SdrUA80qwoezV-67" value="Sitegen" style="shape=umlLifeline;perimeter=lifelinePerimeter;whiteSpace=wrap;html=1;container=0;dropTarget=0;collapsible=0;recursiveResize=0;outlineConnect=0;portConstraint=eastwest;newEdgeStyle={&quot;edgeStyle&quot;:&quot;elbowEdgeStyle&quot;,&quot;elbow&quot;:&quot;vertical&quot;,&quot;curved&quot;:0,&quot;rounded&quot;:0};" vertex="1" parent="1">
          <mxGeometry x="240" y="-160" width="100" height="590" as="geometry" />
        </mxCell>
        <mxCell id="fJqCk-1SdrUA80qwoezV-111" value="" style="html=1;points=[];perimeter=orthogonalPerimeter;outlineConnect=0;targetShapes=umlLifeline;portConstraint=eastwest;newEdgeStyle={&quot;edgeStyle&quot;:&quot;elbowEdgeStyle&quot;,&quot;elbow&quot;:&quot;vertical&quot;,&quot;curved&quot;:0,&quot;rounded&quot;:0};" vertex="1" parent="fJqCk-1SdrUA80qwoezV-67">
          <mxGeometry x="45" y="190" width="10" height="200" as="geometry" />
        </mxCell>
        <mxCell id="fJqCk-1SdrUA80qwoezV-79" value="" style="shape=umlLifeline;perimeter=lifelinePerimeter;whiteSpace=wrap;html=1;container=1;dropTarget=0;collapsible=0;recursiveResize=0;outlineConnect=0;portConstraint=eastwest;newEdgeStyle={&quot;edgeStyle&quot;:&quot;elbowEdgeStyle&quot;,&quot;elbow&quot;:&quot;vertical&quot;,&quot;curved&quot;:0,&quot;rounded&quot;:0};participant=umlActor;size=60;" vertex="1" parent="1">
          <mxGeometry x="-230" y="-170" width="30" height="810" as="geometry" />
        </mxCell>
        <mxCell id="fJqCk-1SdrUA80qwoezV-80" value="&lt;font style=&quot;font-size: 11px;&quot;&gt;Practice Admin&lt;/font&gt;" style="text;html=1;strokeColor=none;fillColor=none;align=center;verticalAlign=middle;whiteSpace=wrap;rounded=0;" vertex="1" parent="1">
          <mxGeometry x="-245" y="-210" width="60" height="30" as="geometry" />
        </mxCell>
        <mxCell id="fJqCk-1SdrUA80qwoezV-81" value="retrival of lab data" style="html=1;verticalAlign=bottom;endArrow=open;dashed=1;endSize=8;edgeStyle=elbowEdgeStyle;elbow=vertical;curved=0;rounded=0;" edge="1" parent="1" target="fJqCk-1SdrUA80qwoezV-82">
          <mxGeometry relative="1" as="geometry">
            <mxPoint x="-40" y="270" as="sourcePoint" />
            <mxPoint x="-10" y="270" as="targetPoint" />
            <Array as="points">
              <mxPoint y="270" />
            </Array>
          </mxGeometry>
        </mxCell>
        <mxCell id="fJqCk-1SdrUA80qwoezV-82" value="" style="html=1;points=[];perimeter=orthogonalPerimeter;outlineConnect=0;targetShapes=umlLifeline;portConstraint=eastwest;newEdgeStyle={&quot;edgeStyle&quot;:&quot;elbowEdgeStyle&quot;,&quot;elbow&quot;:&quot;vertical&quot;,&quot;curved&quot;:0,&quot;rounded&quot;:0};" vertex="1" parent="1">
          <mxGeometry x="-220" y="160" width="10" height="190" as="geometry" />
        </mxCell>
        <mxCell id="fJqCk-1SdrUA80qwoezV-83" value="???" style="text;html=1;strokeColor=none;fillColor=none;align=center;verticalAlign=middle;whiteSpace=wrap;rounded=0;" vertex="1" parent="1">
          <mxGeometry x="-10" y="260" width="60" height="30" as="geometry" />
        </mxCell>
        <mxCell id="fJqCk-1SdrUA80qwoezV-86" value="&lt;font style=&quot;font-size: 11px;&quot;&gt;&lt;i&gt;stores runtime settings &lt;/i&gt;&lt;b&gt;(default timestamp, next time to trigger as Now())&lt;/b&gt;&lt;br&gt;&lt;/font&gt;" style="text;html=1;strokeColor=none;fillColor=none;align=left;verticalAlign=middle;whiteSpace=wrap;rounded=0;" vertex="1" parent="1">
          <mxGeometry x="1065" y="610" width="190" height="70" as="geometry" />
        </mxCell>
        <mxCell id="fJqCk-1SdrUA80qwoezV-91" value="" style="shape=umlLifeline;perimeter=lifelinePerimeter;whiteSpace=wrap;html=1;container=1;dropTarget=0;collapsible=0;recursiveResize=0;outlineConnect=0;portConstraint=eastwest;newEdgeStyle={&quot;edgeStyle&quot;:&quot;elbowEdgeStyle&quot;,&quot;elbow&quot;:&quot;vertical&quot;,&quot;curved&quot;:0,&quot;rounded&quot;:0};participant=umlControl;" vertex="1" parent="1">
          <mxGeometry x="1430" y="-190" width="40" height="1500" as="geometry" />
        </mxCell>
        <mxCell id="fJqCk-1SdrUA80qwoezV-93" value="" style="html=1;points=[];perimeter=orthogonalPerimeter;outlineConnect=0;targetShapes=umlLifeline;portConstraint=eastwest;newEdgeStyle={&quot;edgeStyle&quot;:&quot;elbowEdgeStyle&quot;,&quot;elbow&quot;:&quot;vertical&quot;,&quot;curved&quot;:0,&quot;rounded&quot;:0};" vertex="1" parent="fJqCk-1SdrUA80qwoezV-91">
          <mxGeometry x="15" y="970" width="10" height="370" as="geometry" />
        </mxCell>
        <mxCell id="fJqCk-1SdrUA80qwoezV-92" value="" style="html=1;verticalAlign=bottom;endArrow=block;edgeStyle=elbowEdgeStyle;elbow=vertical;curved=0;rounded=0;jumpStyle=arc;" edge="1" parent="1" source="fJqCk-1SdrUA80qwoezV-49" target="fJqCk-1SdrUA80qwoezV-93">
          <mxGeometry width="80" relative="1" as="geometry">
            <mxPoint x="920" y="640" as="sourcePoint" />
            <mxPoint x="950" y="640" as="targetPoint" />
            <Array as="points">
              <mxPoint x="1340" y="920" />
              <mxPoint x="1400" y="820" />
              <mxPoint x="1030" y="810" />
              <mxPoint x="1070" y="690" />
            </Array>
          </mxGeometry>
        </mxCell>
        <mxCell id="fJqCk-1SdrUA80qwoezV-95" value="&lt;font size=&quot;1&quot;&gt;&lt;b&gt;if &lt;br&gt;Practices with Patient&#39;s lab data has&lt;br&gt;next time to trigger &lt;/b&gt;&amp;lt;&lt;b&gt; current timestamp&lt;br&gt;&amp;amp;&lt;br&gt;next time to trigger &amp;gt; last fetch&lt;br&gt;&lt;br&gt;&lt;br&gt;&lt;/b&gt;&lt;/font&gt;" style="text;html=1;align=center;verticalAlign=middle;resizable=0;points=[];autosize=1;strokeColor=none;fillColor=none;" vertex="1" parent="1">
          <mxGeometry x="1065" y="830" width="210" height="110" as="geometry" />
        </mxCell>
        <mxCell id="fJqCk-1SdrUA80qwoezV-97" value="" style="shape=umlLifeline;perimeter=lifelinePerimeter;whiteSpace=wrap;html=1;container=1;dropTarget=0;collapsible=0;recursiveResize=0;outlineConnect=0;portConstraint=eastwest;newEdgeStyle={&quot;edgeStyle&quot;:&quot;elbowEdgeStyle&quot;,&quot;elbow&quot;:&quot;vertical&quot;,&quot;curved&quot;:0,&quot;rounded&quot;:0};participant=umlControl;" vertex="1" parent="1">
          <mxGeometry x="-130" y="-180" width="40" height="360" as="geometry" />
        </mxCell>
        <mxCell id="fJqCk-1SdrUA80qwoezV-98" value="" style="html=1;points=[];perimeter=orthogonalPerimeter;outlineConnect=0;targetShapes=umlLifeline;portConstraint=eastwest;newEdgeStyle={&quot;edgeStyle&quot;:&quot;elbowEdgeStyle&quot;,&quot;elbow&quot;:&quot;vertical&quot;,&quot;curved&quot;:0,&quot;rounded&quot;:0};" vertex="1" parent="fJqCk-1SdrUA80qwoezV-97">
          <mxGeometry x="15" y="230" width="10" height="60" as="geometry" />
        </mxCell>
        <mxCell id="fJqCk-1SdrUA80qwoezV-101" style="edgeStyle=elbowEdgeStyle;rounded=0;orthogonalLoop=1;jettySize=auto;html=1;elbow=vertical;curved=0;" edge="1" parent="1" source="fJqCk-1SdrUA80qwoezV-98">
          <mxGeometry relative="1" as="geometry">
            <mxPoint x="285" y="100" as="targetPoint" />
            <Array as="points">
              <mxPoint x="260" y="100" />
            </Array>
          </mxGeometry>
        </mxCell>
        <mxCell id="fJqCk-1SdrUA80qwoezV-102" value="yes" style="edgeLabel;html=1;align=center;verticalAlign=middle;resizable=0;points=[];" vertex="1" connectable="0" parent="fJqCk-1SdrUA80qwoezV-101">
          <mxGeometry x="-0.13" y="1" relative="1" as="geometry">
            <mxPoint x="-85" as="offset" />
          </mxGeometry>
        </mxCell>
        <mxCell id="fJqCk-1SdrUA80qwoezV-76" value="&lt;font style=&quot;font-size: 11px;&quot;&gt;is practice opted for labs?&lt;/font&gt;" style="text;html=1;strokeColor=none;fillColor=#18141D;align=center;verticalAlign=middle;whiteSpace=wrap;rounded=0;" vertex="1" parent="1">
          <mxGeometry x="-170" y="-130" width="120" height="30" as="geometry" />
        </mxCell>
        <mxCell id="fJqCk-1SdrUA80qwoezV-99" value="&lt;br&gt;if real-time retrieval of lab interval is defined?&amp;nbsp;" style="text;html=1;strokeColor=none;fillColor=default;align=center;verticalAlign=middle;whiteSpace=wrap;rounded=0;" vertex="1" parent="1">
          <mxGeometry x="120" y="-150" width="100" height="55" as="geometry" />
        </mxCell>
        <mxCell id="fJqCk-1SdrUA80qwoezV-107" style="edgeStyle=elbowEdgeStyle;rounded=0;orthogonalLoop=1;jettySize=auto;html=1;elbow=vertical;curved=0;" edge="1" parent="1" source="aM9ryv3xv72pqoxQDRHE-4" target="fJqCk-1SdrUA80qwoezV-74">
          <mxGeometry relative="1" as="geometry">
            <Array as="points">
              <mxPoint x="30" y="10" />
              <mxPoint x="140" />
            </Array>
          </mxGeometry>
        </mxCell>
        <mxCell id="fJqCk-1SdrUA80qwoezV-108" value="&lt;i&gt;&amp;nbsp; defines&amp;nbsp;&amp;nbsp;&lt;/i&gt;" style="edgeLabel;html=1;align=center;verticalAlign=middle;resizable=0;points=[];" vertex="1" connectable="0" parent="fJqCk-1SdrUA80qwoezV-107">
          <mxGeometry x="-0.1712" y="-1" relative="1" as="geometry">
            <mxPoint x="2" as="offset" />
          </mxGeometry>
        </mxCell>
        <mxCell id="fJqCk-1SdrUA80qwoezV-109" style="edgeStyle=elbowEdgeStyle;rounded=0;orthogonalLoop=1;jettySize=auto;html=1;elbow=vertical;curved=0;" edge="1" parent="1" source="fJqCk-1SdrUA80qwoezV-74">
          <mxGeometry relative="1" as="geometry">
            <mxPoint x="285" y="40" as="targetPoint" />
            <Array as="points">
              <mxPoint x="200" y="40" />
              <mxPoint x="190" y="50" />
              <mxPoint x="220" y="40" />
              <mxPoint x="230" y="30" />
              <mxPoint x="210" y="20" />
              <mxPoint x="190" y="10" />
              <mxPoint x="200" y="20" />
            </Array>
          </mxGeometry>
        </mxCell>
        <mxCell id="fJqCk-1SdrUA80qwoezV-110" value="&amp;nbsp;yes&amp;nbsp;" style="edgeLabel;html=1;align=center;verticalAlign=middle;resizable=0;points=[];" vertex="1" connectable="0" parent="fJqCk-1SdrUA80qwoezV-109">
          <mxGeometry x="0.2646" y="-1" relative="1" as="geometry">
            <mxPoint x="-25" as="offset" />
          </mxGeometry>
        </mxCell>
        <mxCell id="fJqCk-1SdrUA80qwoezV-115" value="" style="group" vertex="1" connectable="0" parent="1">
          <mxGeometry x="410" y="-271.25" width="101" height="1112.5" as="geometry" />
        </mxCell>
        <mxCell id="fJqCk-1SdrUA80qwoezV-20" value="SNS" style="shape=umlLifeline;perimeter=lifelinePerimeter;whiteSpace=wrap;html=1;container=0;dropTarget=0;collapsible=0;recursiveResize=0;outlineConnect=0;portConstraint=eastwest;newEdgeStyle={&quot;edgeStyle&quot;:&quot;elbowEdgeStyle&quot;,&quot;elbow&quot;:&quot;vertical&quot;,&quot;curved&quot;:0,&quot;rounded&quot;:0};size=70;" vertex="1" parent="fJqCk-1SdrUA80qwoezV-115">
          <mxGeometry y="57.5" width="100" height="1055" as="geometry" />
        </mxCell>
        <mxCell id="fJqCk-1SdrUA80qwoezV-112" value="" style="outlineConnect=0;dashed=0;verticalLabelPosition=bottom;verticalAlign=top;align=center;html=1;shape=mxgraph.aws3.sns;fillColor=#D9A741;gradientColor=none;" vertex="1" parent="fJqCk-1SdrUA80qwoezV-115">
          <mxGeometry x="11.75" width="76.5" height="76.5" as="geometry" />
        </mxCell>
        <mxCell id="fJqCk-1SdrUA80qwoezV-40" value="" style="html=1;points=[];perimeter=orthogonalPerimeter;outlineConnect=0;targetShapes=umlLifeline;portConstraint=eastwest;newEdgeStyle={&quot;edgeStyle&quot;:&quot;elbowEdgeStyle&quot;,&quot;elbow&quot;:&quot;vertical&quot;,&quot;curved&quot;:0,&quot;rounded&quot;:0};" vertex="1" parent="fJqCk-1SdrUA80qwoezV-115">
          <mxGeometry x="45" y="445" width="10" height="280" as="geometry" />
        </mxCell>
        <mxCell id="fJqCk-1SdrUA80qwoezV-136" value="" style="sketch=0;points=[[0,0,0],[0.25,0,0],[0.5,0,0],[0.75,0,0],[1,0,0],[0,1,0],[0.25,1,0],[0.5,1,0],[0.75,1,0],[1,1,0],[0,0.25,0],[0,0.5,0],[0,0.75,0],[1,0.25,0],[1,0.5,0],[1,0.75,0]];outlineConnect=0;fontColor=#232F3E;gradientColor=#FF4F8B;gradientDirection=north;fillColor=#BC1356;strokeColor=#ffffff;dashed=0;verticalLabelPosition=bottom;verticalAlign=top;align=center;html=1;fontSize=12;fontStyle=0;aspect=fixed;shape=mxgraph.aws4.resourceIcon;resIcon=mxgraph.aws4.sns;" vertex="1" parent="fJqCk-1SdrUA80qwoezV-115">
          <mxGeometry x="23" y="494.25" width="55.75" height="55.75" as="geometry" />
        </mxCell>
        <mxCell id="fJqCk-1SdrUA80qwoezV-117" style="edgeStyle=elbowEdgeStyle;rounded=0;orthogonalLoop=1;jettySize=auto;html=1;elbow=vertical;curved=0;" edge="1" parent="1" source="fJqCk-1SdrUA80qwoezV-111" target="fJqCk-1SdrUA80qwoezV-40">
          <mxGeometry relative="1" as="geometry">
            <Array as="points">
              <mxPoint x="380" y="185" />
            </Array>
          </mxGeometry>
        </mxCell>
        <mxCell id="fJqCk-1SdrUA80qwoezV-118" value="&lt;i&gt;generates Practice events&lt;/i&gt;" style="edgeLabel;html=1;align=center;verticalAlign=middle;resizable=0;points=[];" vertex="1" connectable="0" parent="fJqCk-1SdrUA80qwoezV-117">
          <mxGeometry x="-0.1111" y="6" relative="1" as="geometry">
            <mxPoint x="5" y="-4" as="offset" />
          </mxGeometry>
        </mxCell>
        <mxCell id="fJqCk-1SdrUA80qwoezV-120" value="" style="group" vertex="1" connectable="0" parent="1">
          <mxGeometry x="720" y="-271.25" width="120" height="870" as="geometry" />
        </mxCell>
        <mxCell id="fJqCk-1SdrUA80qwoezV-26" value="SQS&lt;br&gt;(&lt;font face=&quot;Courier New&quot;&gt;health.event &lt;/font&gt;queue)" style="shape=umlLifeline;perimeter=lifelinePerimeter;whiteSpace=wrap;html=1;container=0;dropTarget=0;collapsible=0;recursiveResize=0;outlineConnect=0;portConstraint=eastwest;newEdgeStyle={&quot;edgeStyle&quot;:&quot;elbowEdgeStyle&quot;,&quot;elbow&quot;:&quot;vertical&quot;,&quot;curved&quot;:0,&quot;rounded&quot;:0};size=90;" vertex="1" parent="fJqCk-1SdrUA80qwoezV-120">
          <mxGeometry y="70" width="120" height="800" as="geometry" />
        </mxCell>
        <mxCell id="fJqCk-1SdrUA80qwoezV-52" value="" style="html=1;points=[];perimeter=orthogonalPerimeter;outlineConnect=0;targetShapes=umlLifeline;portConstraint=eastwest;newEdgeStyle={&quot;edgeStyle&quot;:&quot;elbowEdgeStyle&quot;,&quot;elbow&quot;:&quot;vertical&quot;,&quot;curved&quot;:0,&quot;rounded&quot;:0};" vertex="1" parent="fJqCk-1SdrUA80qwoezV-26">
          <mxGeometry x="55" y="350" width="10" height="420" as="geometry" />
        </mxCell>
        <mxCell id="fJqCk-1SdrUA80qwoezV-119" value="" style="outlineConnect=0;dashed=0;verticalLabelPosition=bottom;verticalAlign=top;align=center;html=1;shape=mxgraph.aws3.sqs;fillColor=#D9A741;gradientColor=none;" vertex="1" parent="fJqCk-1SdrUA80qwoezV-120">
          <mxGeometry x="30" width="76.5" height="93" as="geometry" />
        </mxCell>
        <mxCell id="fJqCk-1SdrUA80qwoezV-124" value="pxp-health-event-scheduler" style="shape=umlLifeline;perimeter=lifelinePerimeter;whiteSpace=wrap;html=1;container=0;dropTarget=0;collapsible=0;recursiveResize=0;outlineConnect=0;portConstraint=eastwest;newEdgeStyle={&quot;edgeStyle&quot;:&quot;elbowEdgeStyle&quot;,&quot;elbow&quot;:&quot;vertical&quot;,&quot;curved&quot;:0,&quot;rounded&quot;:0};" vertex="1" parent="1">
          <mxGeometry x="1810" y="-190" width="100" height="1300" as="geometry" />
        </mxCell>
        <mxCell id="fJqCk-1SdrUA80qwoezV-125" value="" style="html=1;points=[];perimeter=orthogonalPerimeter;outlineConnect=0;targetShapes=umlLifeline;portConstraint=eastwest;newEdgeStyle={&quot;edgeStyle&quot;:&quot;elbowEdgeStyle&quot;,&quot;elbow&quot;:&quot;vertical&quot;,&quot;curved&quot;:0,&quot;rounded&quot;:0};" vertex="1" parent="fJqCk-1SdrUA80qwoezV-124">
          <mxGeometry x="45" y="910" width="10" height="340" as="geometry" />
        </mxCell>
        <mxCell id="fJqCk-1SdrUA80qwoezV-130" style="edgeStyle=elbowEdgeStyle;rounded=0;orthogonalLoop=1;jettySize=auto;html=1;elbow=vertical;curved=0;" edge="1" parent="1" source="fJqCk-1SdrUA80qwoezV-93" target="fJqCk-1SdrUA80qwoezV-125">
          <mxGeometry relative="1" as="geometry">
            <Array as="points">
              <mxPoint x="1680" y="970" />
              <mxPoint x="1750" y="930" />
              <mxPoint x="1520" y="850" />
              <mxPoint x="1580" y="710" />
              <mxPoint x="1480" y="690" />
            </Array>
          </mxGeometry>
        </mxCell>
        <mxCell id="fJqCk-1SdrUA80qwoezV-131" value="List of Practices with Patients" style="edgeLabel;html=1;align=center;verticalAlign=middle;resizable=0;points=[];" vertex="1" connectable="0" parent="fJqCk-1SdrUA80qwoezV-130">
          <mxGeometry x="-0.4485" y="-1" relative="1" as="geometry">
            <mxPoint x="64" y="-11" as="offset" />
          </mxGeometry>
        </mxCell>
        <mxCell id="fJqCk-1SdrUA80qwoezV-133" value="" style="outlineConnect=0;dashed=0;verticalLabelPosition=bottom;verticalAlign=top;align=center;html=1;shape=mxgraph.aws3.queue;fillColor=#D9A741;gradientColor=none;" vertex="1" parent="1">
          <mxGeometry x="2180" y="800" width="50" height="30" as="geometry" />
        </mxCell>
        <mxCell id="fJqCk-1SdrUA80qwoezV-134" style="edgeStyle=elbowEdgeStyle;rounded=0;orthogonalLoop=1;jettySize=auto;html=1;elbow=vertical;curved=0;" edge="1" parent="1" source="fJqCk-1SdrUA80qwoezV-125" target="fJqCk-1SdrUA80qwoezV-90">
          <mxGeometry relative="1" as="geometry">
            <Array as="points">
              <mxPoint x="1940" y="760" />
            </Array>
          </mxGeometry>
        </mxCell>
        <mxCell id="fJqCk-1SdrUA80qwoezV-164" value="&lt;i&gt;pushes event&lt;/i&gt;" style="edgeLabel;html=1;align=center;verticalAlign=middle;resizable=0;points=[];" vertex="1" connectable="0" parent="fJqCk-1SdrUA80qwoezV-134">
          <mxGeometry relative="1" as="geometry">
            <mxPoint x="-1" as="offset" />
          </mxGeometry>
        </mxCell>
        <mxCell id="fJqCk-1SdrUA80qwoezV-139" value="" style="edgeStyle=elbowEdgeStyle;rounded=0;orthogonalLoop=1;jettySize=auto;html=1;elbow=vertical;curved=0;" edge="1" parent="1" source="fJqCk-1SdrUA80qwoezV-125" target="fJqCk-1SdrUA80qwoezV-142">
          <mxGeometry relative="1" as="geometry">
            <mxPoint x="1785" y="870" as="sourcePoint" />
            <mxPoint x="1449" y="780" as="targetPoint" />
            <Array as="points">
              <mxPoint x="1680" y="1050" />
              <mxPoint x="1650" y="980" />
              <mxPoint x="1550" y="870" />
            </Array>
          </mxGeometry>
        </mxCell>
        <mxCell id="fJqCk-1SdrUA80qwoezV-140" value="&lt;i&gt;Updates&amp;nbsp;&lt;/i&gt;&lt;b&gt;last fetch&lt;/b&gt; &lt;i&gt;to the new timestamp&lt;/i&gt;" style="edgeLabel;html=1;align=center;verticalAlign=middle;resizable=0;points=[];" vertex="1" connectable="0" parent="fJqCk-1SdrUA80qwoezV-139">
          <mxGeometry x="0.2741" y="-2" relative="1" as="geometry">
            <mxPoint x="25" y="-8" as="offset" />
          </mxGeometry>
        </mxCell>
        <mxCell id="fJqCk-1SdrUA80qwoezV-141" value="pxp-health-data-service" style="shape=umlLifeline;perimeter=lifelinePerimeter;whiteSpace=wrap;html=1;container=0;dropTarget=0;collapsible=0;recursiveResize=0;outlineConnect=0;portConstraint=eastwest;newEdgeStyle={&quot;edgeStyle&quot;:&quot;elbowEdgeStyle&quot;,&quot;elbow&quot;:&quot;vertical&quot;,&quot;curved&quot;:0,&quot;rounded&quot;:0};" vertex="1" parent="1">
          <mxGeometry x="1530" y="-130" width="100" height="1540" as="geometry" />
        </mxCell>
        <mxCell id="fJqCk-1SdrUA80qwoezV-142" value="" style="html=1;points=[];perimeter=orthogonalPerimeter;outlineConnect=0;targetShapes=umlLifeline;portConstraint=eastwest;newEdgeStyle={&quot;edgeStyle&quot;:&quot;elbowEdgeStyle&quot;,&quot;elbow&quot;:&quot;vertical&quot;,&quot;curved&quot;:0,&quot;rounded&quot;:0};" vertex="1" parent="fJqCk-1SdrUA80qwoezV-141">
          <mxGeometry x="45" y="1160" width="10" height="130" as="geometry" />
        </mxCell>
        <mxCell id="fJqCk-1SdrUA80qwoezV-152" value="" style="html=1;points=[];perimeter=orthogonalPerimeter;outlineConnect=0;targetShapes=umlLifeline;portConstraint=eastwest;newEdgeStyle={&quot;edgeStyle&quot;:&quot;elbowEdgeStyle&quot;,&quot;elbow&quot;:&quot;vertical&quot;,&quot;curved&quot;:0,&quot;rounded&quot;:0};" vertex="1" parent="fJqCk-1SdrUA80qwoezV-141">
          <mxGeometry x="45" y="570" width="10" height="180" as="geometry" />
        </mxCell>
        <mxCell id="fJqCk-1SdrUA80qwoezV-143" style="edgeStyle=elbowEdgeStyle;rounded=0;orthogonalLoop=1;jettySize=auto;html=1;elbow=vertical;curved=0;entryX=0;entryY=0.5;entryDx=0;entryDy=0;entryPerimeter=0;" edge="1" parent="1" source="fJqCk-1SdrUA80qwoezV-90" target="fJqCk-1SdrUA80qwoezV-133">
          <mxGeometry relative="1" as="geometry" />
        </mxCell>
        <mxCell id="fJqCk-1SdrUA80qwoezV-145" value="" style="shape=umlLifeline;perimeter=lifelinePerimeter;whiteSpace=wrap;html=1;container=1;dropTarget=0;collapsible=0;recursiveResize=0;outlineConnect=0;portConstraint=eastwest;newEdgeStyle={&quot;edgeStyle&quot;:&quot;elbowEdgeStyle&quot;,&quot;elbow&quot;:&quot;vertical&quot;,&quot;curved&quot;:0,&quot;rounded&quot;:0};participant=umlEntity;size=40;" vertex="1" parent="1">
          <mxGeometry x="1320" y="-150" width="40" height="1500" as="geometry" />
        </mxCell>
        <mxCell id="fJqCk-1SdrUA80qwoezV-159" value="" style="html=1;points=[];perimeter=orthogonalPerimeter;outlineConnect=0;targetShapes=umlLifeline;portConstraint=eastwest;newEdgeStyle={&quot;edgeStyle&quot;:&quot;elbowEdgeStyle&quot;,&quot;elbow&quot;:&quot;vertical&quot;,&quot;curved&quot;:0,&quot;rounded&quot;:0};" vertex="1" parent="fJqCk-1SdrUA80qwoezV-145">
          <mxGeometry x="15" y="690" width="10" height="150" as="geometry" />
        </mxCell>
        <mxCell id="fJqCk-1SdrUA80qwoezV-150" value="pxp-health-event-scheduler" style="shape=umlLifeline;perimeter=lifelinePerimeter;whiteSpace=wrap;html=1;container=0;dropTarget=0;collapsible=0;recursiveResize=0;outlineConnect=0;portConstraint=eastwest;newEdgeStyle={&quot;edgeStyle&quot;:&quot;elbowEdgeStyle&quot;,&quot;elbow&quot;:&quot;vertical&quot;,&quot;curved&quot;:0,&quot;rounded&quot;:0};" vertex="1" parent="1">
          <mxGeometry x="2550" y="-450" width="100" height="2210" as="geometry" />
        </mxCell>
        <mxCell id="fJqCk-1SdrUA80qwoezV-151" value="" style="html=1;points=[];perimeter=orthogonalPerimeter;outlineConnect=0;targetShapes=umlLifeline;portConstraint=eastwest;newEdgeStyle={&quot;edgeStyle&quot;:&quot;elbowEdgeStyle&quot;,&quot;elbow&quot;:&quot;vertical&quot;,&quot;curved&quot;:0,&quot;rounded&quot;:0};" vertex="1" parent="fJqCk-1SdrUA80qwoezV-150">
          <mxGeometry x="45" y="1240" width="10" height="60" as="geometry" />
        </mxCell>
        <mxCell id="fJqCk-1SdrUA80qwoezV-64" value="" style="html=1;align=left;spacingLeft=2;endArrow=block;rounded=0;edgeStyle=orthogonalEdgeStyle;curved=0;rounded=0;" edge="1" target="fJqCk-1SdrUA80qwoezV-159" parent="1" source="fJqCk-1SdrUA80qwoezV-49">
          <mxGeometry relative="1" as="geometry">
            <mxPoint x="920" y="350" as="sourcePoint" />
            <Array as="points">
              <mxPoint x="1280" y="550" />
              <mxPoint x="1280" y="550" />
            </Array>
            <mxPoint x="1330" y="460" as="targetPoint" />
          </mxGeometry>
        </mxCell>
        <mxCell id="fJqCk-1SdrUA80qwoezV-153" value="pxp-lab-fetch-event-consumer" style="shape=umlLifeline;perimeter=lifelinePerimeter;whiteSpace=wrap;html=1;container=0;dropTarget=0;collapsible=0;recursiveResize=0;outlineConnect=0;portConstraint=eastwest;newEdgeStyle={&quot;edgeStyle&quot;:&quot;elbowEdgeStyle&quot;,&quot;elbow&quot;:&quot;vertical&quot;,&quot;curved&quot;:0,&quot;rounded&quot;:0};" vertex="1" parent="1">
          <mxGeometry x="3500" y="-180" width="100" height="1300" as="geometry" />
        </mxCell>
        <mxCell id="fJqCk-1SdrUA80qwoezV-154" value="" style="html=1;points=[];perimeter=orthogonalPerimeter;outlineConnect=0;targetShapes=umlLifeline;portConstraint=eastwest;newEdgeStyle={&quot;edgeStyle&quot;:&quot;elbowEdgeStyle&quot;,&quot;elbow&quot;:&quot;vertical&quot;,&quot;curved&quot;:0,&quot;rounded&quot;:0};" vertex="1" parent="fJqCk-1SdrUA80qwoezV-153">
          <mxGeometry x="45" y="900" width="10" height="330" as="geometry" />
        </mxCell>
        <mxCell id="fJqCk-1SdrUA80qwoezV-155" value="pxp-labresult-consumer" style="shape=umlLifeline;perimeter=lifelinePerimeter;whiteSpace=wrap;html=1;container=0;dropTarget=0;collapsible=0;recursiveResize=0;outlineConnect=0;portConstraint=eastwest;newEdgeStyle={&quot;edgeStyle&quot;:&quot;elbowEdgeStyle&quot;,&quot;elbow&quot;:&quot;vertical&quot;,&quot;curved&quot;:0,&quot;rounded&quot;:0};" vertex="1" parent="1">
          <mxGeometry x="3330" y="-170" width="100" height="1300" as="geometry" />
        </mxCell>
        <mxCell id="fJqCk-1SdrUA80qwoezV-156" value="" style="html=1;points=[];perimeter=orthogonalPerimeter;outlineConnect=0;targetShapes=umlLifeline;portConstraint=eastwest;newEdgeStyle={&quot;edgeStyle&quot;:&quot;elbowEdgeStyle&quot;,&quot;elbow&quot;:&quot;vertical&quot;,&quot;curved&quot;:0,&quot;rounded&quot;:0};" vertex="1" parent="fJqCk-1SdrUA80qwoezV-155">
          <mxGeometry x="45" y="900" width="10" height="330" as="geometry" />
        </mxCell>
        <mxCell id="fJqCk-1SdrUA80qwoezV-157" style="edgeStyle=elbowEdgeStyle;rounded=0;orthogonalLoop=1;jettySize=auto;html=1;elbow=vertical;curved=0;exitX=1;exitY=0.5;exitDx=0;exitDy=0;exitPerimeter=0;" edge="1" parent="1" source="fJqCk-1SdrUA80qwoezV-133" target="fJqCk-1SdrUA80qwoezV-151">
          <mxGeometry relative="1" as="geometry">
            <mxPoint x="2260" y="820" as="sourcePoint" />
            <mxPoint x="2355" y="774.17" as="targetPoint" />
            <Array as="points">
              <mxPoint x="2260" y="815" />
              <mxPoint x="2260" y="820" />
              <mxPoint x="2230" y="820" />
              <mxPoint x="2230" y="810" />
              <mxPoint x="2240" y="820" />
              <mxPoint x="2250" y="810" />
              <mxPoint x="2500" y="820" />
            </Array>
          </mxGeometry>
        </mxCell>
        <mxCell id="fJqCk-1SdrUA80qwoezV-158" value="&lt;font face=&quot;Courier New&quot;&gt;lab.fetch.event&lt;/font&gt;" style="edgeLabel;html=1;align=center;verticalAlign=middle;resizable=0;points=[];" vertex="1" connectable="0" parent="fJqCk-1SdrUA80qwoezV-157">
          <mxGeometry x="-0.3417" y="-6" relative="1" as="geometry">
            <mxPoint x="30" y="-20" as="offset" />
          </mxGeometry>
        </mxCell>
        <mxCell id="fJqCk-1SdrUA80qwoezV-84" value="" style="html=1;align=left;spacingLeft=2;endArrow=block;rounded=0;edgeStyle=orthogonalEdgeStyle;curved=0;rounded=0;" edge="1" parent="1" source="fJqCk-1SdrUA80qwoezV-49">
          <mxGeometry relative="1" as="geometry">
            <mxPoint x="940" y="520" as="sourcePoint" />
            <Array as="points">
              <mxPoint x="1160" y="670" />
              <mxPoint x="1160" y="670" />
            </Array>
            <mxPoint x="1335" y="670" as="targetPoint" />
          </mxGeometry>
        </mxCell>
        <mxCell id="fJqCk-1SdrUA80qwoezV-162" value="Schedule" style="text;html=1;strokeColor=none;fillColor=#18141D;align=center;verticalAlign=middle;whiteSpace=wrap;rounded=0;" vertex="1" parent="1">
          <mxGeometry x="1310" y="-110" width="60" height="30" as="geometry" />
        </mxCell>
        <mxCell id="fJqCk-1SdrUA80qwoezV-163" style="edgeStyle=elbowEdgeStyle;rounded=0;orthogonalLoop=1;jettySize=auto;html=1;elbow=vertical;curved=0;" edge="1" parent="1" source="fJqCk-1SdrUA80qwoezV-142" target="fJqCk-1SdrUA80qwoezV-93">
          <mxGeometry relative="1" as="geometry">
            <Array as="points">
              <mxPoint x="1510" y="1140" />
              <mxPoint x="1490" y="1100" />
            </Array>
          </mxGeometry>
        </mxCell>
        <mxCell id="fJqCk-1SdrUA80qwoezV-165" value="pxp-ng-api-client-service" style="shape=umlLifeline;perimeter=lifelinePerimeter;whiteSpace=wrap;html=1;container=0;dropTarget=0;collapsible=0;recursiveResize=0;outlineConnect=0;portConstraint=eastwest;newEdgeStyle={&quot;edgeStyle&quot;:&quot;elbowEdgeStyle&quot;,&quot;elbow&quot;:&quot;vertical&quot;,&quot;curved&quot;:0,&quot;rounded&quot;:0};" vertex="1" parent="1">
          <mxGeometry x="2810" y="-140" width="100" height="1440" as="geometry" />
        </mxCell>
        <mxCell id="fJqCk-1SdrUA80qwoezV-166" value="" style="html=1;points=[];perimeter=orthogonalPerimeter;outlineConnect=0;targetShapes=umlLifeline;portConstraint=eastwest;newEdgeStyle={&quot;edgeStyle&quot;:&quot;elbowEdgeStyle&quot;,&quot;elbow&quot;:&quot;vertical&quot;,&quot;curved&quot;:0,&quot;rounded&quot;:0};" vertex="1" parent="fJqCk-1SdrUA80qwoezV-165">
          <mxGeometry x="45" y="910" width="10" height="340" as="geometry" />
        </mxCell>
        <mxCell id="fJqCk-1SdrUA80qwoezV-167" style="edgeStyle=elbowEdgeStyle;rounded=0;orthogonalLoop=1;jettySize=auto;html=1;elbow=vertical;curved=0;" edge="1" parent="1" source="fJqCk-1SdrUA80qwoezV-166" target="fJqCk-1SdrUA80qwoezV-170">
          <mxGeometry relative="1" as="geometry">
            <Array as="points">
              <mxPoint x="3060" y="1020" />
              <mxPoint x="3170" y="1130" />
            </Array>
          </mxGeometry>
        </mxCell>
        <mxCell id="fJqCk-1SdrUA80qwoezV-168" value="&lt;i&gt;calls &lt;b&gt;labs/orders?modifytimestamp=X&lt;/b&gt;&lt;/i&gt;" style="edgeLabel;html=1;align=center;verticalAlign=middle;resizable=0;points=[];" vertex="1" connectable="0" parent="fJqCk-1SdrUA80qwoezV-167">
          <mxGeometry x="-0.0355" y="6" relative="1" as="geometry">
            <mxPoint x="2" y="-4" as="offset" />
          </mxGeometry>
        </mxCell>
        <mxCell id="fJqCk-1SdrUA80qwoezV-169" value="NGE API" style="shape=umlLifeline;perimeter=lifelinePerimeter;whiteSpace=wrap;html=1;container=0;dropTarget=0;collapsible=0;recursiveResize=0;outlineConnect=0;portConstraint=eastwest;newEdgeStyle={&quot;edgeStyle&quot;:&quot;elbowEdgeStyle&quot;,&quot;elbow&quot;:&quot;vertical&quot;,&quot;curved&quot;:0,&quot;rounded&quot;:0};" vertex="1" parent="1">
          <mxGeometry x="3220" y="-180" width="100" height="1630" as="geometry" />
        </mxCell>
        <mxCell id="fJqCk-1SdrUA80qwoezV-170" value="" style="html=1;points=[];perimeter=orthogonalPerimeter;outlineConnect=0;targetShapes=umlLifeline;portConstraint=eastwest;newEdgeStyle={&quot;edgeStyle&quot;:&quot;elbowEdgeStyle&quot;,&quot;elbow&quot;:&quot;vertical&quot;,&quot;curved&quot;:0,&quot;rounded&quot;:0};" vertex="1" parent="fJqCk-1SdrUA80qwoezV-169">
          <mxGeometry x="45" y="900" width="10" height="510" as="geometry" />
        </mxCell>
        <mxCell id="fJqCk-1SdrUA80qwoezV-172" value="&lt;i&gt;returns &lt;/i&gt;&lt;b&gt;&lt;i&gt;records where&lt;/i&gt;&amp;nbsp;modifytimestamp = x&lt;/b&gt;" style="html=1;verticalAlign=bottom;endArrow=open;dashed=1;endSize=8;edgeStyle=elbowEdgeStyle;elbow=vertical;curved=0;rounded=0;" edge="1" parent="1" source="fJqCk-1SdrUA80qwoezV-170" target="fJqCk-1SdrUA80qwoezV-166">
          <mxGeometry relative="1" as="geometry">
            <mxPoint x="3260" y="1200" as="sourcePoint" />
            <mxPoint x="3180" y="1200" as="targetPoint" />
            <Array as="points">
              <mxPoint x="2930" y="1070" />
              <mxPoint x="3000" y="1230" />
              <mxPoint x="2850" y="1200" />
            </Array>
          </mxGeometry>
        </mxCell>
        <mxCell id="fJqCk-1SdrUA80qwoezV-173" value="" style="group" vertex="1" connectable="0" parent="1">
          <mxGeometry x="1990" y="-320" width="120" height="3270" as="geometry" />
        </mxCell>
        <mxCell id="fJqCk-1SdrUA80qwoezV-89" value="SQS&lt;br&gt;&amp;nbsp;(l&lt;font face=&quot;Courier New&quot;&gt;ab.fetch.event&amp;nbsp;&lt;br&gt;&lt;/font&gt;queue)" style="shape=umlLifeline;perimeter=lifelinePerimeter;whiteSpace=wrap;html=1;container=0;dropTarget=0;collapsible=0;recursiveResize=0;outlineConnect=0;portConstraint=eastwest;newEdgeStyle={&quot;edgeStyle&quot;:&quot;elbowEdgeStyle&quot;,&quot;elbow&quot;:&quot;vertical&quot;,&quot;curved&quot;:0,&quot;rounded&quot;:0};size=110;" vertex="1" parent="fJqCk-1SdrUA80qwoezV-173">
          <mxGeometry y="73.23" width="120" height="3196.77" as="geometry" />
        </mxCell>
        <mxCell id="fJqCk-1SdrUA80qwoezV-90" value="" style="html=1;points=[];perimeter=orthogonalPerimeter;outlineConnect=0;targetShapes=umlLifeline;portConstraint=eastwest;newEdgeStyle={&quot;edgeStyle&quot;:&quot;elbowEdgeStyle&quot;,&quot;elbow&quot;:&quot;vertical&quot;,&quot;curved&quot;:0,&quot;rounded&quot;:0};" vertex="1" parent="fJqCk-1SdrUA80qwoezV-89">
          <mxGeometry x="55" y="950" width="10" height="148.46" as="geometry" />
        </mxCell>
        <mxCell id="fJqCk-1SdrUA80qwoezV-132" value="" style="outlineConnect=0;dashed=0;verticalLabelPosition=bottom;verticalAlign=top;align=center;html=1;shape=mxgraph.aws3.sqs;fillColor=#D9A741;gradientColor=none;" vertex="1" parent="fJqCk-1SdrUA80qwoezV-173">
          <mxGeometry x="21.75" width="76.5" height="97.2923076923077" as="geometry" />
        </mxCell>
        <mxCell id="fJqCk-1SdrUA80qwoezV-175" style="edgeStyle=elbowEdgeStyle;rounded=0;orthogonalLoop=1;jettySize=auto;html=1;elbow=vertical;curved=0;" edge="1" parent="1" source="fJqCk-1SdrUA80qwoezV-166" target="fJqCk-1SdrUA80qwoezV-170">
          <mxGeometry relative="1" as="geometry">
            <Array as="points">
              <mxPoint x="3180" y="850" />
            </Array>
          </mxGeometry>
        </mxCell>
        <mxCell id="fJqCk-1SdrUA80qwoezV-176" value="&lt;font face=&quot;Courier New&quot;&gt;access_token&lt;/font&gt;" style="edgeLabel;html=1;align=center;verticalAlign=middle;resizable=0;points=[];" vertex="1" connectable="0" parent="fJqCk-1SdrUA80qwoezV-175">
          <mxGeometry x="-0.0236" y="2" relative="1" as="geometry">
            <mxPoint y="-7" as="offset" />
          </mxGeometry>
        </mxCell>
        <mxCell id="fJqCk-1SdrUA80qwoezV-179" style="edgeStyle=elbowEdgeStyle;rounded=0;orthogonalLoop=1;jettySize=auto;html=1;elbow=vertical;curved=0;" edge="1" parent="1" source="fJqCk-1SdrUA80qwoezV-170" target="fJqCk-1SdrUA80qwoezV-166">
          <mxGeometry relative="1" as="geometry">
            <Array as="points">
              <mxPoint x="3020" y="920" />
            </Array>
          </mxGeometry>
        </mxCell>
        <mxCell id="fJqCk-1SdrUA80qwoezV-180" value="is token valid? true" style="edgeLabel;html=1;align=center;verticalAlign=middle;resizable=0;points=[];fontFamily=Courier New;" vertex="1" connectable="0" parent="fJqCk-1SdrUA80qwoezV-179">
          <mxGeometry x="0.1288" y="1" relative="1" as="geometry">
            <mxPoint x="31" y="-11" as="offset" />
          </mxGeometry>
        </mxCell>
        <mxCell id="fJqCk-1SdrUA80qwoezV-184" value="pxp-ng-api-client-service" style="shape=umlLifeline;perimeter=lifelinePerimeter;whiteSpace=wrap;html=1;container=0;dropTarget=0;collapsible=0;recursiveResize=0;outlineConnect=0;portConstraint=eastwest;newEdgeStyle={&quot;edgeStyle&quot;:&quot;elbowEdgeStyle&quot;,&quot;elbow&quot;:&quot;vertical&quot;,&quot;curved&quot;:0,&quot;rounded&quot;:0};" vertex="1" parent="1">
          <mxGeometry x="2950" y="-435" width="100" height="1235" as="geometry" />
        </mxCell>
        <mxCell id="fJqCk-1SdrUA80qwoezV-185" value="" style="html=1;points=[];perimeter=orthogonalPerimeter;outlineConnect=0;targetShapes=umlLifeline;portConstraint=eastwest;newEdgeStyle={&quot;edgeStyle&quot;:&quot;elbowEdgeStyle&quot;,&quot;elbow&quot;:&quot;vertical&quot;,&quot;curved&quot;:0,&quot;rounded&quot;:0};" vertex="1" parent="fJqCk-1SdrUA80qwoezV-184">
          <mxGeometry x="45" y="865" width="10" height="340" as="geometry" />
        </mxCell>
        <mxCell id="fJqCk-1SdrUA80qwoezV-192" value="" style="group" vertex="1" connectable="0" parent="1">
          <mxGeometry x="3160" y="-480" width="100" height="1620" as="geometry" />
        </mxCell>
        <mxCell id="fJqCk-1SdrUA80qwoezV-190" value="" style="shape=umlLifeline;perimeter=lifelinePerimeter;whiteSpace=wrap;html=1;container=1;dropTarget=0;collapsible=0;recursiveResize=0;outlineConnect=0;portConstraint=eastwest;newEdgeStyle={&quot;edgeStyle&quot;:&quot;elbowEdgeStyle&quot;,&quot;elbow&quot;:&quot;vertical&quot;,&quot;curved&quot;:0,&quot;rounded&quot;:0};" vertex="1" parent="fJqCk-1SdrUA80qwoezV-192">
          <mxGeometry y="50" width="100" height="1570" as="geometry" />
        </mxCell>
        <mxCell id="fJqCk-1SdrUA80qwoezV-188" value="&lt;font color=&quot;#e4e4e4&quot;&gt;Memcache&lt;/font&gt;" style="sketch=0;outlineConnect=0;fontColor=#232F3E;gradientColor=none;strokeColor=#232F3E;fillColor=#ffffff;dashed=0;verticalLabelPosition=bottom;verticalAlign=top;align=center;html=1;fontSize=12;fontStyle=0;aspect=fixed;shape=mxgraph.aws4.resourceIcon;resIcon=mxgraph.aws4.cache_node;" vertex="1" parent="fJqCk-1SdrUA80qwoezV-192">
          <mxGeometry x="20" width="60" height="60" as="geometry" />
        </mxCell>
        <mxCell id="fJqCk-1SdrUA80qwoezV-193" value="" style="html=1;points=[];perimeter=orthogonalPerimeter;outlineConnect=0;targetShapes=umlLifeline;portConstraint=eastwest;newEdgeStyle={&quot;edgeStyle&quot;:&quot;elbowEdgeStyle&quot;,&quot;elbow&quot;:&quot;vertical&quot;,&quot;curved&quot;:0,&quot;rounded&quot;:0};" vertex="1" parent="fJqCk-1SdrUA80qwoezV-192">
          <mxGeometry x="45" y="1440" width="10" height="35" as="geometry" />
        </mxCell>
        <mxCell id="fJqCk-1SdrUA80qwoezV-194" style="edgeStyle=elbowEdgeStyle;rounded=0;orthogonalLoop=1;jettySize=auto;html=1;elbow=vertical;curved=0;" edge="1" parent="1" source="fJqCk-1SdrUA80qwoezV-166" target="fJqCk-1SdrUA80qwoezV-193">
          <mxGeometry relative="1" as="geometry" />
        </mxCell>
        <mxCell id="fJqCk-1SdrUA80qwoezV-195" value="stores token" style="edgeLabel;html=1;align=center;verticalAlign=middle;resizable=0;points=[];" vertex="1" connectable="0" parent="fJqCk-1SdrUA80qwoezV-194">
          <mxGeometry x="0.2298" y="1" relative="1" as="geometry">
            <mxPoint x="-26" y="-7" as="offset" />
          </mxGeometry>
        </mxCell>
      </root>
    </mxGraphModel>
  </diagram>
</mxfile>
